<svg xmlns="http://www.w3.org/2000/svg" xmlns:xlink="http://www.w3.org/1999/xlink" width="20" height="27" viewBox="0 0 20 27">
  <defs>
    <style>
      .cls-1 {
        fill-rule: evenodd;
        filter: url(#filter);
      }
    </style>
    <filter id="filter" x="1694" y="111" width="20" height="27" filterUnits="userSpaceOnUse">
      <feFlood result="flood" flood-color="#76818f"/>
      <feComposite result="composite" operator="in" in2="SourceGraphic"/>
      <feBlend result="blend" in2="SourceGraphic"/>
    </filter>
  </defs>
  <path id="Forma_1" data-name="Forma 1" class="cls-1" d="M1707.08,112.582h-1.45l-0.18-.527a1.524,1.524,0,0,0-2.9,0l-0.18.527h-1.45a1.562,1.562,0,0,0-1.54,1.582v0.791a0.784,0.784,0,0,0,.77.791h7.7a0.784,0.784,0,0,0,.77-0.791v-0.791A1.562,1.562,0,0,0,1707.08,112.582Zm4.61,1.582h-1.54v0.791a2.339,2.339,0,0,1-2.3,2.373h-7.7a2.339,2.339,0,0,1-2.3-2.373v-0.791h-1.54a2.347,2.347,0,0,0-2.31,2.373v18.985a2.442,2.442,0,0,0,2.31,2.478h15.38a2.442,2.442,0,0,0,2.31-2.478V116.537A2.347,2.347,0,0,0,1711.69,114.164Zm-8.68,17.171-3.08,3.164a0.758,0.758,0,0,1-1.09,0l-1.54-1.582a0.808,0.808,0,0,1,0-1.119,0.757,0.757,0,0,1,1.09,0l0.99,1.023,2.54-2.6a0.757,0.757,0,0,1,1.09,0A0.808,0.808,0,0,1,1703.01,131.335Zm0-5.537-3.08,3.164a0.758,0.758,0,0,1-1.09,0l-1.54-1.583a0.807,0.807,0,0,1,0-1.118,0.757,0.757,0,0,1,1.09,0l0.99,1.023,2.54-2.605a0.757,0.757,0,0,1,1.09,0A0.808,0.808,0,0,1,1703.01,125.8Zm0-5.538-3.08,3.165a0.758,0.758,0,0,1-1.09,0l-1.54-1.583a0.807,0.807,0,0,1,0-1.118,0.757,0.757,0,0,1,1.09,0l0.99,1.023,2.54-2.605a0.757,0.757,0,0,1,1.09,0A0.807,0.807,0,0,1,1703.01,120.26Zm7.14,12.889h-4.61a0.792,0.792,0,0,1,0-1.583h4.61A0.792,0.792,0,0,1,1710.15,133.149Zm0-5.538h-4.61a0.791,0.791,0,0,1,0-1.582h4.61A0.791,0.791,0,0,1,1710.15,127.611Zm0-5.537h-4.61a0.791,0.791,0,0,1,0-1.582h4.61A0.791,0.791,0,0,1,1710.15,122.074Z" transform="translate(-1694 -111)"/>
</svg>
