<svg xmlns="http://www.w3.org/2000/svg" xmlns:xlink="http://www.w3.org/1999/xlink" width="19" height="18" viewBox="0 0 19 18">
  <defs>
    <style>
      .cls-1 {
        fill-rule: evenodd;
        filter: url(#filter);
      }
    </style>
    <filter id="filter" x="917" y="268" width="19" height="18" filterUnits="userSpaceOnUse">
      <feFlood result="flood" flood-color="#42d25b"/>
      <feComposite result="composite" operator="in" in2="SourceGraphic"/>
      <feBlend result="blend" in2="SourceGraphic"/>
    </filter>
  </defs>
  <path id="Forma_1_копия_13" data-name="Forma 1 копия 13" class="cls-1" d="M933.063,279.766a4.206,4.206,0,0,0-.722,1.31h-11.7a4.3,4.3,0,0,0-.764-1.31h-1.132a2.578,2.578,0,0,1-1.376-.406H917v1.256a2.147,2.147,0,0,0,.629,1.408,1.879,1.879,0,0,0,1.12.406h15.5A1.788,1.788,0,0,0,936,280.616v-1.549a2.552,2.552,0,0,1-1.749.7h-1.188ZM934.251,268h-15.5A1.77,1.77,0,0,0,917,269.8v7.249a2.152,2.152,0,0,0,.629,1.412,1.879,1.879,0,0,0,1.12.406h15.5A1.792,1.792,0,0,0,936,277.044V269.8A1.771,1.771,0,0,0,934.251,268Zm0.448,7.006a4.027,4.027,0,0,0-2.358,2.5h-11.7a4.281,4.281,0,0,0-2.344-2.474v-3.217a4.048,4.048,0,0,0,2.336-2.484h11.715a3.774,3.774,0,0,0,2.347,2.507v3.167h0Zm-8.213-4.791a3.211,3.211,0,1,0,3.081,3.209A3.147,3.147,0,0,0,926.486,270.216Zm0.253,5.045v0.6H926.2V275.3a2.2,2.2,0,0,1-.972-0.256l0.168-.693a1.938,1.938,0,0,0,.944.261,0.446,0.446,0,0,0,.545-0.368,0.66,0.66,0,0,0-.6-0.515,1.2,1.2,0,0,1-1.024-1.085,1.081,1.081,0,0,1,.964-1.055v-0.565h0.564v0.524a2.01,2.01,0,0,1,.82.195l-0.167.67a1.839,1.839,0,0,0-.821-0.2c-0.37,0-.49.166-0.49,0.331a0.8,0.8,0,0,0,.683.51,1.134,1.134,0,0,1,.947,1.109A1.122,1.122,0,0,1,926.739,275.261Zm6.324,8.073a4.206,4.206,0,0,0-.722,1.31h-11.7a4.3,4.3,0,0,0-.764-1.31h-1.132a2.578,2.578,0,0,1-1.376-.406H917v1.256a2.144,2.144,0,0,0,.629,1.408,1.88,1.88,0,0,0,1.12.407h15.5A1.789,1.789,0,0,0,936,284.184v-1.549a2.552,2.552,0,0,1-1.749.7h-1.188Z" transform="translate(-917 -268)"/>
</svg>
