<svg xmlns="http://www.w3.org/2000/svg" xmlns:xlink="http://www.w3.org/1999/xlink" width="25" height="24" viewBox="0 0 25 24">
  <defs>
    <style>
      .cls-1 {
        fill-rule: evenodd;
        filter: url(#filter);
      }
    </style>
    <filter id="filter" x="1192" y="899" width="25" height="24" filterUnits="userSpaceOnUse">
      <feFlood result="flood" flood-color="#7d8491"/>
      <feComposite result="composite" operator="in" in2="SourceGraphic"/>
      <feBlend result="blend" in2="SourceGraphic"/>
    </filter>
  </defs>
  <path id="Forma_1_копия_2" data-name="Forma 1 копия 2" class="cls-1" d="M1192,908.652a2.32,2.32,0,0,0,.68,1.643,2.574,2.574,0,0,0-.67,1.992,2.7,2.7,0,0,0,2.72,2.365h6.43a14.988,14.988,0,0,0-.83,4.174c0,2.263,1.92,4.174,3.13,4.174a3.315,3.315,0,0,0,1.89-.635,0.532,0.532,0,0,0,.19-0.408v-3.539l3-6.51,0.13-.064v0.2a0.519,0.519,0,0,0,.52.521h5.21a2.609,2.609,0,0,0,2.6-2.608v-8.348a2.61,2.61,0,0,0-2.6-2.609h-3.13a2.6,2.6,0,0,0-2.45,1.725,6.777,6.777,0,0,0-2.76-.682h-9.56a2.4,2.4,0,0,0-2.36,1.822,3.06,3.06,0,0,1-1.1,3.657A2.324,2.324,0,0,1,1192,908.652Zm2.2-1.287a0.521,0.521,0,0,0,.29-0.9,1.294,1.294,0,0,1,.75-2.232,0.512,0.512,0,0,0,.43-0.354,0.522,0.522,0,0,0-.13-0.544,1.263,1.263,0,0,1-.38-1.245,1.347,1.347,0,0,1,1.34-1h9.56a4.934,4.934,0,0,1,2.76.891,0.521,0.521,0,0,0,.89-0.369,1.565,1.565,0,0,1,1.56-1.566h3.13a1.565,1.565,0,0,1,1.56,1.566v8.348a1.565,1.565,0,0,1-1.56,1.565h-4.69V911a0.524,0.524,0,0,0-.76-0.466l-1.04.521a0.549,0.549,0,0,0-.24.248l-3.12,6.782a0.556,0.556,0,0,0-.05.219v3.37a2.194,2.194,0,0,1-1.04.283c-0.57,0-2.09-1.422-2.09-3.131a16.217,16.217,0,0,1,1.01-4.51,0.519,0.519,0,0,0-.06-0.482,0.5,0.5,0,0,0-.42-0.225h-7.17a1.643,1.643,0,0,1-1.68-1.418,1.553,1.553,0,0,1,.74-1.477,0.538,0.538,0,0,0,.25-0.464,0.531,0.531,0,0,0-.29-0.445A1.293,1.293,0,0,1,1194.2,907.365Zm14.99,4.157a0.526,0.526,0,0,0,.52-0.522v-9.391a0.526,0.526,0,0,0-.52-0.522,0.519,0.519,0,0,0-.52.522V911A0.519,0.519,0,0,0,1209.19,911.522Z" transform="translate(-1192 -899)"/>
</svg>
