<svg xmlns="http://www.w3.org/2000/svg" xmlns:xlink="http://www.w3.org/1999/xlink" width="26" height="24" viewBox="0 0 26 24">
  <defs>
    <style>
      .cls-1 {
        fill-rule: evenodd;
        filter: url(#filter);
      }
    </style>
    <filter id="filter" x="1691" y="155" width="26" height="24" filterUnits="userSpaceOnUse">
      <feFlood result="flood" flood-color="#76818f"/>
      <feComposite result="composite" operator="in" in2="SourceGraphic"/>
      <feBlend result="blend" in2="SourceGraphic"/>
    </filter>
  </defs>
  <path id="Forma_1" data-name="Forma 1" class="cls-1" d="M1712.98,170.688a5.651,5.651,0,0,0-.99,1.746h-16a5.674,5.674,0,0,0-1.05-1.746h-1.55a3.582,3.582,0,0,1-1.88-.542H1691v1.675a2.811,2.811,0,0,0,.86,1.878,2.631,2.631,0,0,0,1.53.542h21.22a2.414,2.414,0,0,0,2.39-2.42v-2.065a3.522,3.522,0,0,1-2.39.932h-1.63ZM1714.61,155h-21.22a2.39,2.39,0,0,0-2.39,2.391v9.665a2.829,2.829,0,0,0,.86,1.884,2.631,2.631,0,0,0,1.53.541h21.22a2.419,2.419,0,0,0,2.39-2.425v-9.665A2.39,2.39,0,0,0,1714.61,155Zm0.61,9.341a5.428,5.428,0,0,0-3.23,3.334h-16a5.778,5.778,0,0,0-3.21-3.3v-4.289a5.454,5.454,0,0,0,3.2-3.311h16.03a5.067,5.067,0,0,0,3.21,3.342v4.223h0Zm-11.24-6.388a4.278,4.278,0,1,0,4.22,4.278A4.25,4.25,0,0,0,1703.98,157.955Zm0.35,6.727v0.8h-0.75v-0.742a3.112,3.112,0,0,1-1.33-.34l0.23-.925a2.744,2.744,0,0,0,1.3.348,0.6,0.6,0,0,0,.74-0.49,0.9,0.9,0,0,0-.82-0.688,1.606,1.606,0,0,1-1.4-1.446,1.449,1.449,0,0,1,1.31-1.407v-0.753h0.78v0.7a2.842,2.842,0,0,1,1.12.261l-0.23.893a2.553,2.553,0,0,0-1.12-.268c-0.51,0-.67.221-0.67,0.442,0,0.261.27,0.427,0.93,0.68A1.477,1.477,0,0,1,1704.33,164.682Zm8.65,10.763a5.651,5.651,0,0,0-.99,1.746h-16a5.674,5.674,0,0,0-1.05-1.746h-1.55a3.582,3.582,0,0,1-1.88-.542H1691v1.675a2.809,2.809,0,0,0,.86,1.878,2.631,2.631,0,0,0,1.53.542h21.22a2.414,2.414,0,0,0,2.39-2.42v-2.065a3.522,3.522,0,0,1-2.39.932h-1.63Z" transform="translate(-1691 -155)"/>
</svg>
