<svg xmlns="http://www.w3.org/2000/svg" xmlns:xlink="http://www.w3.org/1999/xlink" width="25" height="24" viewBox="0 0 25 24">
  <defs>
    <style>
      .cls-1 {
        fill-rule: evenodd;
        filter: url(#filter);
      }
    </style>
    <filter id="filter" x="1082" y="896" width="25" height="24" filterUnits="userSpaceOnUse">
      <feFlood result="flood" flood-color="#7d8491"/>
      <feComposite result="composite" operator="in" in2="SourceGraphic"/>
      <feBlend result="blend" in2="SourceGraphic"/>
    </filter>
  </defs>
  <path id="Forma_1" data-name="Forma 1" class="cls-1" d="M1107,910.348a2.32,2.32,0,0,0-.68-1.643,2.574,2.574,0,0,0,.67-1.992,2.7,2.7,0,0,0-2.72-2.365h-6.43a14.988,14.988,0,0,0,.83-4.174c0-2.263-1.92-4.174-3.13-4.174a3.3,3.3,0,0,0-1.89.636,0.529,0.529,0,0,0-.19.408v3.538l-3,6.51-0.13.064v-0.2a0.519,0.519,0,0,0-.52-0.522h-5.21a2.609,2.609,0,0,0-2.6,2.608v8.348a2.61,2.61,0,0,0,2.6,2.609h3.13a2.6,2.6,0,0,0,2.45-1.725,6.775,6.775,0,0,0,2.76.681h9.56a2.4,2.4,0,0,0,2.36-1.821,3.06,3.06,0,0,1,1.1-3.657A2.324,2.324,0,0,1,1107,910.348Zm-2.2,1.287a0.521,0.521,0,0,0-.29.9,1.294,1.294,0,0,1-.75,2.232,0.512,0.512,0,0,0-.43.354,0.522,0.522,0,0,0,.13.544,1.263,1.263,0,0,1,.38,1.245,1.347,1.347,0,0,1-1.34,1h-9.56a4.926,4.926,0,0,1-2.76-.891,0.521,0.521,0,0,0-.89.369,1.564,1.564,0,0,1-1.56,1.565h-3.13a1.564,1.564,0,0,1-1.56-1.565v-8.348a1.564,1.564,0,0,1,1.56-1.565h4.69V908a0.525,0.525,0,0,0,.76.466l1.04-.521a0.544,0.544,0,0,0,.24-0.248l3.12-6.782a0.556,0.556,0,0,0,.05-0.219v-3.37a2.194,2.194,0,0,1,1.04-.282c0.57,0,2.09,1.421,2.09,3.13a16.217,16.217,0,0,1-1.01,4.51,0.519,0.519,0,0,0,.06.482,0.5,0.5,0,0,0,.42.225h7.17a1.643,1.643,0,0,1,1.68,1.418,1.553,1.553,0,0,1-.74,1.477,0.523,0.523,0,0,0,.03.909,1.281,1.281,0,0,1,.72,1.153A1.3,1.3,0,0,1,1104.8,911.635Zm-14.99-4.157a0.526,0.526,0,0,0-.52.522v9.391a0.526,0.526,0,0,0,.52.522,0.519,0.519,0,0,0,.52-0.522V908A0.519,0.519,0,0,0,1089.81,907.478Z" transform="translate(-1082 -896)"/>
</svg>
