<svg xmlns="http://www.w3.org/2000/svg" xmlns:xlink="http://www.w3.org/1999/xlink" width="29" height="23" viewBox="0 0 29 23">
  <defs>
    <style>
      .cls-1 {
        fill-rule: evenodd;
        filter: url(#filter);
      }
    </style>
    <filter id="filter" x="1086" y="53" width="29" height="23" filterUnits="userSpaceOnUse">
      <feFlood result="flood" flood-color="#fff"/>
      <feComposite result="composite" operator="in" in2="SourceGraphic"/>
      <feBlend result="blend" in2="SourceGraphic"/>
    </filter>
  </defs>
  <path id="Forma_1" data-name="Forma 1" class="cls-1" d="M1088.78,60.089c0.37,0.261,1.48,1.038,3.32,2.328s3.26,2.285,4.24,2.982q0.165,0.114.69,0.5t0.87,0.621q0.345,0.237.84,0.531a4.928,4.928,0,0,0,.93.441,2.631,2.631,0,0,0,.81.147h0.04a2.631,2.631,0,0,0,.81-0.147,4.928,4.928,0,0,0,.93-0.441q0.495-.294.84-0.531t0.87-.621q0.525-.384.69-0.5,1.485-1.046,7.57-5.31a7.733,7.733,0,0,0,1.98-2.01,4.331,4.331,0,0,0,.79-2.467,2.527,2.527,0,0,0-.77-1.847,2.486,2.486,0,0,0-1.82-.768h-23.82a2.31,2.31,0,0,0-1.92.849,3.307,3.307,0,0,0-.67,2.124,3.86,3.86,0,0,0,.89,2.23A7.976,7.976,0,0,0,1088.78,60.089Zm24.6,1.748q-5.31,3.627-8.06,5.637c-0.61.457-1.11,0.814-1.49,1.07a9.8,9.8,0,0,1-1.53.784,4.637,4.637,0,0,1-1.78.4h-0.04a4.637,4.637,0,0,1-1.78-.4,9.8,9.8,0,0,1-1.53-.784c-0.38-.256-0.88-0.613-1.49-1.07q-2.19-1.617-8.05-5.637a8.576,8.576,0,0,1-1.63-1.422V73.388a2.517,2.517,0,0,0,.76,1.846,2.492,2.492,0,0,0,1.83.768h23.82a2.492,2.492,0,0,0,1.83-.768,2.518,2.518,0,0,0,.76-1.846V60.415A8.682,8.682,0,0,1,1113.38,61.837Z" transform="translate(-1086 -53)"/>
</svg>
