<svg xmlns="http://www.w3.org/2000/svg" xmlns:xlink="http://www.w3.org/1999/xlink" width="30" height="43" viewBox="0 0 30 43">
  <defs>
    <style>
      .cls-1 {
        fill-rule: evenodd;
        filter: url(#filter);
      }
    </style>
    <filter id="filter" x="879" y="266" width="30" height="43" filterUnits="userSpaceOnUse">
      <feFlood result="flood" flood-color="#fff"/>
      <feComposite result="composite" operator="in" in2="SourceGraphic"/>
      <feBlend result="blend" in2="SourceGraphic"/>
    </filter>
  </defs>
  <path id="moderator-ico" class="cls-1" d="M905.844,289.971l-3.707-1.3a0.629,0.629,0,0,0-.163-0.274l-2.052-2.02a0.649,0.649,0,0,0-.488-0.183h0v-1.72a7.311,7.311,0,0,0,1.931-3.754h0.845a1.994,1.994,0,0,0,2.008-1.976v-2.02a2,2,0,0,0-2.008-1.976h-0.044v-2.529a5.572,5.572,0,0,0-2.458-4.458,10.1,10.1,0,0,0-11.41,0,5.571,5.571,0,0,0-2.457,4.458v2.529h-0.045a1.994,1.994,0,0,0-2.007,1.976v2.02a1.993,1.993,0,0,0,2.007,1.976h0.846a7.3,7.3,0,0,0,1.934,3.757V286.2h-0.009a0.649,0.649,0,0,0-.488.183l-2.051,2.02a0.626,0.626,0,0,0-.163.276l-3.7,1.294A4.65,4.65,0,0,0,879,294.558l0.563,13.837a0.636,0.636,0,0,0,.639.605h0.026a0.633,0.633,0,0,0,.614-0.654l-0.563-13.837a3.385,3.385,0,0,1,.181-1.242l2.3,2.269a3.359,3.359,0,0,1,1.015,2.411V308.37a0.64,0.64,0,0,0,1.28,0V297.946a4.6,4.6,0,0,0-1.39-3.3l-2.549-2.51a3.467,3.467,0,0,1,1.459-.977l3.768-1.317,2.211,3.482a2.013,2.013,0,0,0,1.334.9,2.037,2.037,0,0,0,1.573-.361l1.219-.9,0.276,0.339a1.337,1.337,0,0,0,2.067,0l0.275-.339,1.22,0.9a2.033,2.033,0,0,0,1.206.4,1.963,1.963,0,0,0,.366-0.034,2.013,2.013,0,0,0,1.335-.9l2.211-3.483,3.771,1.318a3.467,3.467,0,0,1,1.459.977l-2.549,2.509a4.6,4.6,0,0,0-1.39,3.3V308.37a0.64,0.64,0,0,0,1.28,0V297.946a3.359,3.359,0,0,1,1.015-2.411l2.3-2.269a3.382,3.382,0,0,1,.182,1.242l-0.563,13.837a0.632,0.632,0,0,0,.613.654h0.026a0.636,0.636,0,0,0,.639-0.605L909,294.558A4.65,4.65,0,0,0,905.844,289.971Zm-4.367-13.959h0.728a0.723,0.723,0,0,1,.728.716v2.02a0.724,0.724,0,0,1-.728.717h-0.728v-3.453Zm-14.958,3.453h-0.727a0.723,0.723,0,0,1-.728-0.717v-2.02a0.722,0.722,0,0,1,.728-0.716h0.727v3.453Zm1.28-.044v-3.409h0.265a1.318,1.318,0,0,0,1.229-.819,0.627,0.627,0,0,0-.356-0.819,0.643,0.643,0,0,0-.832.351,0.045,0.045,0,0,1-.041.027h-0.949v-2.529c0-2.737,3.088-4.963,6.883-4.963s6.883,2.226,6.883,4.963v2.529h-0.949a0.043,0.043,0,0,1-.04-0.027l-0.852-2.1a2,2,0,0,0-1.864-1.242h-6.355a2.02,2.02,0,0,0-1.731.976,0.624,0.624,0,0,0,.228.862,0.645,0.645,0,0,0,.875-0.225,0.733,0.733,0,0,1,.628-0.353h6.355a0.723,0.723,0,0,1,.675.45l0.852,2.1a1.319,1.319,0,0,0,1.229.819H900.2v2.736c0,1.848-2.839,3.41-6.2,3.41a0.63,0.63,0,1,0,0,1.259,9.782,9.782,0,0,0,5.712-1.625A6.215,6.215,0,0,1,887.8,279.421Zm2.9,13.428a0.735,0.735,0,0,1-1.054-.194l-2.36-3.717,1.186-1.168,3.415,4.2Zm3.331-.34a0.045,0.045,0,0,1-.035.016,0.042,0.042,0,0,1-.034-0.016l-4.113-5.062v-1.9a7.564,7.564,0,0,0,8.3,0v1.9Zm4.315,0.146a0.717,0.717,0,0,1-.483.325,0.73,0.73,0,0,1-.571-0.131l-1.187-.877,3.415-4.2,1.187,1.168Zm-7.085,7.006h-4.1a0.63,0.63,0,1,0,0,1.26h4.1A0.63,0.63,0,1,0,891.263,299.661Z" transform="translate(-879 -266)"/>
</svg>
