<svg xmlns="http://www.w3.org/2000/svg" xmlns:xlink="http://www.w3.org/1999/xlink" width="24" height="24" viewBox="0 0 24 24">
  <defs>
    <style>
      .cls-1 {
        fill-rule: evenodd;
        filter: url(#filter);
      }
    </style>
    <filter id="filter" x="1692" y="195" width="24" height="24" filterUnits="userSpaceOnUse">
      <feFlood result="flood" flood-color="#76818f"/>
      <feComposite result="composite" operator="in" in2="SourceGraphic"/>
      <feBlend result="blend" in2="SourceGraphic"/>
    </filter>
  </defs>
  <path id="Forma_1" data-name="Forma 1" class="cls-1" d="M1715.92,205.668a0.773,0.773,0,0,0-.77-0.591,2.65,2.65,0,0,1-1.81-4.612,0.661,0.661,0,0,0,.07-0.905,11.7,11.7,0,0,0-1.9-1.92,0.666,0.666,0,0,0-.91.074,2.765,2.765,0,0,1-2.99.672,2.645,2.645,0,0,1-1.62-2.6,0.669,0.669,0,0,0-.59-0.7,11.95,11.95,0,0,0-2.7-.007,0.672,0.672,0,0,0-.6.686,2.671,2.671,0,0,1-1.64,2.561,2.769,2.769,0,0,1-2.97-.677,0.676,0.676,0,0,0-.91-0.076,12.021,12.021,0,0,0-1.94,1.919,0.671,0.671,0,0,0,.07.913,2.66,2.66,0,0,1,.68,2.994,2.786,2.786,0,0,1-2.62,1.622,0.649,0.649,0,0,0-.69.589,11.861,11.861,0,0,0,0,2.729,0.782,0.782,0,0,0,.78.59,2.627,2.627,0,0,1,2.47,1.644,2.67,2.67,0,0,1-.67,2.968,0.659,0.659,0,0,0-.07.9,12.114,12.114,0,0,0,1.9,1.921,0.664,0.664,0,0,0,.91-0.073,2.76,2.76,0,0,1,2.99-.673,2.644,2.644,0,0,1,1.62,2.6,0.669,0.669,0,0,0,.59.7,12.091,12.091,0,0,0,1.39.08,11.872,11.872,0,0,0,1.31-.073,0.672,0.672,0,0,0,.6-0.687,2.668,2.668,0,0,1,1.64-2.559,2.763,2.763,0,0,1,2.97.676,0.677,0.677,0,0,0,.91.076,12.231,12.231,0,0,0,1.94-1.92,0.669,0.669,0,0,0-.07-0.912,2.659,2.659,0,0,1-.68-2.993,2.7,2.7,0,0,1,2.46-1.627l0.15,0a0.667,0.667,0,0,0,.7-0.588A11.861,11.861,0,0,0,1715.92,205.668Zm-11.9,5.36a4,4,0,1,1,4-4A4,4,0,0,1,1704.02,211.028Z" transform="translate(-1692 -195)"/>
</svg>
