<svg xmlns="http://www.w3.org/2000/svg" xmlns:xlink="http://www.w3.org/1999/xlink" width="43" height="43" viewBox="0 0 43 43">
  <defs>
    <style>
      .cls-1 {
        fill-rule: evenodd;
        filter: url(#filter);
      }
    </style>
    <filter id="filter" x="1292" y="266" width="43" height="43" filterUnits="userSpaceOnUse">
      <feFlood result="flood" flood-color="#fff"/>
      <feComposite result="composite" operator="in" in2="SourceGraphic"/>
      <feBlend result="blend" in2="SourceGraphic"/>
    </filter>
  </defs>
  <path id="robot-ico" class="cls-1" d="M1319.84,307.642h-12.68a0.679,0.679,0,1,0,0,1.357h12.68A0.679,0.679,0,1,0,1319.84,307.642Zm11.77-17.2a3.377,3.377,0,0,0-.81.1l-3.63-6.1a10.507,10.507,0,0,0,1.23-1.049,10.185,10.185,0,0,0-10.78-16.737,13.357,13.357,0,0,0-17.47,12.7v1.81a4.306,4.306,0,0,0,4.3,4.3H1317a10.216,10.216,0,0,0,9.01-.306l3.56,5.967a3.375,3.375,0,0,0-1.36,2.713,1.7,1.7,0,0,0,.01.226h-4.35l0.59-2.338a2.487,2.487,0,0,0-2.42-3.094h-17.08a2.487,2.487,0,0,0-2.42,3.094l0.59,2.338h-4.35a1.7,1.7,0,0,0,.01-0.226,3.4,3.4,0,1,0-4.07,3.326v5.952h-0.97a1.577,1.577,0,0,0-1.21.561,1.613,1.613,0,0,0-.36,1.284l0.58,3.472a0.679,0.679,0,0,0,1.34-.223l-0.58-3.472a0.27,0.27,0,0,1,.05-0.184,0.253,0.253,0,0,1,.18-0.08h3.29a0.21,0.21,0,0,1,.17.08,0.225,0.225,0,0,1,.06.184l-0.58,3.472a0.667,0.667,0,0,0,.55.781,0.69,0.69,0,0,0,.79-0.558l0.57-3.472a1.58,1.58,0,0,0-1.56-1.845h-0.97v-5.952a3.421,3.421,0,0,0,2.33-1.742h5.06l1.45,5.8a4.3,4.3,0,0,0,4.18,3.257h8.82a4.3,4.3,0,0,0,4.18-3.257l1.45-5.8h5.06A3.4,3.4,0,1,0,1331.61,290.442Zm-27.16-6.337a2.939,2.939,0,0,1-2.94-2.942v-1.81a12,12,0,0,1,14.25-11.782,10.161,10.161,0,0,0-4.3,5.613,3.351,3.351,0,0,0-1.58-.394,3.395,3.395,0,1,0,0,6.789,3.363,3.363,0,0,0,1.58-.394,10.268,10.268,0,0,0,2.53,4.2c0.26,0.256.53,0.5,0.8,0.719h-10.34Zm6.69-6.322a2.006,2.006,0,0,1-1.26.438,2.037,2.037,0,1,1,0-4.074,2.006,2.006,0,0,1,1.26.438A10.09,10.09,0,0,0,1311.14,277.783Zm3.81,4.642a8.829,8.829,0,1,1,12.49,0A8.838,8.838,0,0,1,1314.95,282.425Zm-19.56,13.448a2.037,2.037,0,1,1,2.04-2.037A2.035,2.035,0,0,1,1295.39,295.873Zm27.75-4.478-0.66,2.668h-7.17a0.679,0.679,0,1,0,0,1.358h6.83l-1.37,5.466a2.939,2.939,0,0,1-2.86,2.228h-8.83a2.936,2.936,0,0,1-2.85-2.228l-2.37-9.492a1.124,1.124,0,0,1,1.1-1.406h17.08a1.149,1.149,0,0,1,.9.435A1.126,1.126,0,0,1,1323.14,291.4Zm8.47,4.478a2.033,2.033,0,0,1-1.92-1.346c0-.008-0.01-0.016-0.01-0.024a2.1,2.1,0,0,1-.11-0.666,2.042,2.042,0,0,1,1.19-1.855,0.036,0.036,0,0,0,.02-0.009A2.037,2.037,0,1,1,1331.61,295.873Zm-23.54,1.72a0.677,0.677,0,0,0-.68.679v0.091a0.68,0.68,0,0,0,1.36,0v-0.091A0.683,0.683,0,0,0,1308.07,297.593Zm9.96,1.449a0.683,0.683,0,0,0,.68-0.679v-0.091a0.68,0.68,0,0,0-1.36,0v0.091A0.677,0.677,0,0,0,1318.03,299.042Zm8.13-27.819a7.028,7.028,0,1,0,2.05,4.961A6.989,6.989,0,0,0,1326.16,271.223Zm-0.96,8.962a5.675,5.675,0,1,1,1.65-4A5.628,5.628,0,0,1,1325.2,280.185Zm-14.42,17.408a0.675,0.675,0,0,0-.67.679v0.091a0.675,0.675,0,1,0,1.35,0v-0.091A0.677,0.677,0,0,0,1310.78,297.593Zm-0.9-6.246h-1.81a1.587,1.587,0,0,0-1.59,1.584v1.811a1.587,1.587,0,0,0,1.59,1.584h1.81a1.585,1.585,0,0,0,1.58-1.584v-1.811A1.585,1.585,0,0,0,1309.88,291.347Zm0.23,3.4a0.233,0.233,0,0,1-.23.226h-1.81a0.226,0.226,0,0,1-.23-0.226v-1.811a0.227,0.227,0,0,1,.23-0.226h1.81a0.233,0.233,0,0,1,.23.226v1.811Z" transform="translate(-1292 -266)"/>
</svg>
