<svg xmlns="http://www.w3.org/2000/svg" xmlns:xlink="http://www.w3.org/1999/xlink" width="300" height="301" viewBox="0 0 300 301">
  <defs>
    <style>
      .cls-1 {
        fill-rule: evenodd;
        filter: url(#filter);
      }
    </style>
    <filter id="filter" x="809" y="179" width="300" height="301" filterUnits="userSpaceOnUse">
      <feFlood result="flood" flood-color="#fff"/>
      <feComposite result="composite" operator="in" in2="SourceGraphic"/>
      <feBlend result="blend" in2="SourceGraphic"/>
    </filter>
  </defs>
  <path class="cls-1" d="M981.686,467.213V448.438a118.785,118.785,0,0,0,45.374-19.069l13.33,13.368a12.757,12.757,0,0,0,17.94,0l13.82-13.86a12.843,12.843,0,0,0,0-17.988l-13.53-13.565a120.345,120.345,0,0,0,18.53-45.414h19.21A12.694,12.694,0,0,0,1109,339.231v-19.66a12.7,12.7,0,0,0-12.64-12.68h-19.31a120.4,120.4,0,0,0-18.72-45.118l13.72-13.762a12.844,12.844,0,0,0,0-17.989l-14.02-13.958a12.746,12.746,0,0,0-17.93,0l-13.72,13.762a120.13,120.13,0,0,0-45.086-18.775V191.687a12.693,12.693,0,0,0-12.643-12.68h-19.6a12.692,12.692,0,0,0-12.643,12.68v19.266a119.819,119.819,0,0,0-45.28,18.676L877.7,216.261a12.752,12.752,0,0,0-17.936,0l-13.819,13.958a12.844,12.844,0,0,0,0,17.989l13.329,13.368a119.369,119.369,0,0,0-18.915,45.511h-18.72A12.693,12.693,0,0,0,809,319.768v19.659a12.692,12.692,0,0,0,12.643,12.68H840.26a120.962,120.962,0,0,0,18.817,45.708l-12.937,13.27a12.844,12.844,0,0,0,0,17.989l13.819,13.86a12.752,12.752,0,0,0,17.936,0l13.133-13.172A121.289,121.289,0,0,0,936.7,448.635v18.676a12.694,12.694,0,0,0,12.643,12.681h19.6A12.862,12.862,0,0,0,981.686,467.213Zm-68.8-91.318a65.379,65.379,0,1,1,92.326-.1A65.634,65.634,0,0,1,912.884,375.9Z" transform="translate(-809 -179)"/>
</svg>
