<svg id="Группа_17" data-name="Группа 17" xmlns="http://www.w3.org/2000/svg" width="7" height="14" viewBox="0 0 7 14">
  <defs>
    <style>
      .cls-1 {
        fill-rule: evenodd;
      }
    </style>
  </defs>
  <path id="Forma_1_копия_2" data-name="Forma 1 копия 2" class="cls-1" d="M1464.87,427.132a0.425,0.425,0,0,0-.31-0.132h-6.12a0.425,0.425,0,0,0-.31.132,0.441,0.441,0,0,0,0,.625l3.06,3.111a0.43,0.43,0,0,0,.62,0l3.06-3.111A0.441,0.441,0,0,0,1464.87,427.132Z" transform="translate(-1458 -417)"/>
  <path id="Forma_1_копия_3" data-name="Forma 1 копия 3" class="cls-1" d="M1458.13,420.868a0.425,0.425,0,0,0,.31.132h6.12a0.425,0.425,0,0,0,.31-0.132,0.441,0.441,0,0,0,0-.625l-3.06-3.111a0.43,0.43,0,0,0-.62,0l-3.06,3.111A0.441,0.441,0,0,0,1458.13,420.868Z" transform="translate(-1458 -417)"/>
</svg>
