<svg xmlns="http://www.w3.org/2000/svg" xmlns:xlink="http://www.w3.org/1999/xlink" width="28.939" height="28" viewBox="0 0 28.939 28">
  <defs>
    <style>
      .cls-1 {
        fill-rule: evenodd;
        filter: url(#filter);
      }
    </style>
    <filter id="filter" x="975.031" y="894" width="28.939" height="28" filterUnits="userSpaceOnUse">
      <feFlood result="flood" flood-color="#78808d"/>
      <feComposite result="composite" operator="in" in2="SourceGraphic"/>
      <feBlend result="blend" in2="SourceGraphic"/>
    </filter>
  </defs>
  <path id="Forma_1" data-name="Forma 1" class="cls-1" d="M1003.36,906.688a2.109,2.109,0,0,0,.53-2.148,2.077,2.077,0,0,0-1.68-1.427l-7.019-1.028a0.918,0.918,0,0,1-.691-0.506l-3.137-6.412a2.071,2.071,0,0,0-3.727,0l-3.138,6.412a0.919,0.919,0,0,1-.691.506l-7.017,1.029a2.069,2.069,0,0,0-1.678,1.426,2.1,2.1,0,0,0,.526,2.148l5.077,4.99a0.934,0.934,0,0,1,.265.82l-1.2,7.047a2.091,2.091,0,0,0,.827,2.049,2.046,2.046,0,0,0,2.189.16l6.275-3.327a0.909,0.909,0,0,1,.854,0l6.276,3.327a2.05,2.05,0,0,0,2.189-.16,2.089,2.089,0,0,0,.826-2.049l-1.2-7.047a0.929,0.929,0,0,1,.265-0.819Zm-6.485,6.008,1.2,7.047a0.912,0.912,0,0,1-.364.9,0.9,0.9,0,0,1-.967.071l-6.276-3.328a2.061,2.061,0,0,0-1.934,0l-6.275,3.328a0.9,0.9,0,0,1-.967-0.071,0.912,0.912,0,0,1-.365-0.9l1.2-7.047a2.107,2.107,0,0,0-.6-1.855l-5.078-4.991a0.928,0.928,0,0,1,.508-1.579l7.017-1.028a2.077,2.077,0,0,0,1.565-1.146l3.138-6.412a0.915,0.915,0,0,1,1.646,0l3.138,6.412a2.075,2.075,0,0,0,1.564,1.146l7.016,1.028a0.93,0.93,0,0,1,.51,1.579l-5.078,4.991A2.1,2.1,0,0,0,996.875,912.7Z" transform="translate(-975.031 -894)"/>
</svg>
