<svg xmlns="http://www.w3.org/2000/svg" xmlns:xlink="http://www.w3.org/1999/xlink" width="40" height="38" viewBox="0 0 40 38">
  <defs>
    <style>
      .cls-1 {
        fill-rule: evenodd;
        filter: url(#filter);
      }
    </style>
    <filter id="filter" x="451" y="269" width="40" height="38" filterUnits="userSpaceOnUse">
      <feFlood result="flood" flood-color="#fff"/>
      <feComposite result="composite" operator="in" in2="SourceGraphic"/>
      <feBlend result="blend" in2="SourceGraphic"/>
    </filter>
  </defs>
  <path id="support-ico" class="cls-1" d="M485.286,283.375a14.286,14.286,0,1,0-28.572-.035v0.035A6.078,6.078,0,0,0,451,289.434v0.717a6.077,6.077,0,0,0,6.071,6.094h0.322l2.536,4.051a9.542,9.542,0,0,0,8.178,4.553h0.5a2.868,2.868,0,1,0,0-1.434h-0.5a8.143,8.143,0,0,1-6.964-3.907l-2.072-3.263h0.5A1.435,1.435,0,0,0,461,294.811V284.774a1.435,1.435,0,0,0-1.429-1.434h-1.428a12.857,12.857,0,1,1,25.714,0h-1.428A1.435,1.435,0,0,0,481,284.774v10.037a1.435,1.435,0,0,0,1.429,1.434h2.5A6.077,6.077,0,0,0,491,290.151v-0.717A6.078,6.078,0,0,0,485.286,283.375ZM471.357,302.7a1.434,1.434,0,1,1-1.428,1.434A1.435,1.435,0,0,1,471.357,302.7Zm-11.786-17.924v10.037h-2.5a4.642,4.642,0,0,1-4.642-4.66v-0.717a4.642,4.642,0,0,1,4.642-4.66h2.5Zm30,5.377a4.642,4.642,0,0,1-4.642,4.66h-2.5V284.774h2.5a4.642,4.642,0,0,1,4.642,4.66v0.717Z" transform="translate(-451 -269)"/>
</svg>
