<svg xmlns="http://www.w3.org/2000/svg" xmlns:xlink="http://www.w3.org/1999/xlink" width="35" height="25" viewBox="0 0 35 25">
  <defs>
    <style>
      .cls-1 {
        fill-rule: evenodd;
        filter: url(#filter);
      }
    </style>
    <filter id="filter" x="1506" y="557" width="35" height="25" filterUnits="userSpaceOnUse">
      <feFlood result="flood" flood-color="#949494"/>
      <feComposite result="composite" operator="in" in2="SourceGraphic"/>
      <feBlend result="blend" in2="SourceGraphic"/>
    </filter>
  </defs>
  <path id="Forma_1" data-name="Forma 1" class="cls-1" d="M1539.93,562.034a2.276,2.276,0,0,0-2.21-.153l-4.7,2.185v-0.081a2.04,2.04,0,0,0-2.03-2.045h-2.88v-3.092a1.855,1.855,0,0,0-1.85-1.856h-19.65a0.619,0.619,0,0,0,0,1.237h19.65a0.621,0.621,0,0,1,.62.619v3.092h-18.85a2.04,2.04,0,0,0-2.03,2.045v15.7a2.039,2.039,0,0,0,2.03,2.045h22.96a2.039,2.039,0,0,0,2.03-2.045V579.6l4.7,2.185a2.314,2.314,0,0,0,3.28-2.114V564A2.321,2.321,0,0,0,1539.93,562.034Zm-8.14,17.651a0.806,0.806,0,0,1-.8.809h-22.96a0.806,0.806,0,0,1-.8-0.809v-15.7a0.805,0.805,0,0,1,.8-0.808h22.96a0.805,0.805,0,0,1,.8.808v15.7Zm7.98-.01a1.07,1.07,0,0,1-.5.92,1.053,1.053,0,0,1-1.04.071l-5.21-2.423V565.428l5.21-2.424a1.058,1.058,0,0,1,1.04.071,1.072,1.072,0,0,1,.5.921v15.679Z" transform="translate(-1506 -557)"/>
</svg>
