<svg xmlns="http://www.w3.org/2000/svg" xmlns:xlink="http://www.w3.org/1999/xlink" width="26" height="23" viewBox="0 0 26 23">
  <defs>
    <style>
      .cls-1 {
        fill-rule: evenodd;
        filter: url(#filter);
      }
    </style>
    <filter id="filter" x="1296" y="897" width="26" height="23" filterUnits="userSpaceOnUse">
      <feFlood result="flood" flood-color="#7d8491"/>
      <feComposite result="composite" operator="in" in2="SourceGraphic"/>
      <feBlend result="blend" in2="SourceGraphic"/>
    </filter>
  </defs>
  <path class="cls-1" d="M1309,913.573a1.241,1.241,0,1,1-1.2,1.24A1.222,1.222,0,0,1,1309,913.573Zm-0.16-1.978a0.675,0.675,0,0,0,.66-0.683v-6.486a0.66,0.66,0,1,0-1.32,0v6.486A0.668,0.668,0,0,0,1308.84,911.6Zm2.57-12.565-0.03-.048c-0.61-.974-1.24-1.982-2.38-1.982-1.18,0-1.8,1.022-2.4,2.011-0.01,0-.02.036-0.03,0.041l-10.48,18.319a0.48,0.48,0,0,0-.09.282,2.311,2.311,0,0,0,2.31,2.347h21.38a2.311,2.311,0,0,0,2.31-2.347,0.582,0.582,0,0,0-.09-0.314Zm8.28,19.6h-21.38a0.956,0.956,0,0,1-.97-0.817l10.38-18.115c0.51-.849.85-1.352,1.28-1.352s0.81,0.638,1.27,1.367l10.39,18.1A0.96,0.96,0,0,1,1319.69,918.634Z" transform="translate(-1296 -897)"/>
</svg>
